<?xml version="1.0" encoding="utf-8"?>
<!-- Generator: Adobe Illustrator 18.1.1, SVG Export Plug-In . SVG Version: 6.00 Build 0)  -->
<!DOCTYPE svg PUBLIC "-//W3C//DTD SVG 1.1//EN" "http://www.w3.org/Graphics/SVG/1.1/DTD/svg11.dtd">
<svg version="1.1" id="Layer_1" xmlns="http://www.w3.org/2000/svg" xmlns:xlink="http://www.w3.org/1999/xlink" x="0px" y="0px"
	 viewBox="0 0 720 720" enable-background="new 0 0 720 720" xml:space="preserve">
<g>
	<path fill="#FF8D6A" d="M565.1,160.3l23.7-32.6c-97.9-71.1-234.2-75-337.5-0.1l23.6,32.4c40.7-29.6,90.8-47,144.9-47
		C474.1,113.1,524.3,130.6,565.1,160.3z"/>
	<path fill="#F2D383" d="M666.7,360c0,26.6-4.2,52.2-12,76.3l38.2,12.4c27.3-84.4,15.6-180.2-40.6-257.4
		c-18.2-25-39.8-46.2-63.5-63.4l-23.7,32.6C626.7,205.3,666.7,278,666.7,360z"/>
	<path fill="#B7DC78" d="M420,606.9v40.3c58.6,0,117.7-17.5,168.7-54.6c51-37.1,86-87.9,104-143.6l-38.2-12.4
		C622.4,535.4,529.6,606.8,420,606.9z"/>
	<path fill="#65CBC9" d="M185,436.6L146.8,449c9.1,27.9,22.5,55,40.7,80c56.1,77.3,143.6,118,232.3,118.1v-40.2
		C310.2,606.9,217.2,535.4,185,436.6z"/>
</g>
<g id="Layer_1_1_">
	<g>
		<g>
			<g>
				<path fill="#2E2A25" d="M173,377.2h-40.3v-75.3c0-10.7-3.9-20-11.7-27.7s-17.1-11.6-27.9-11.6c-11,0-20.4,3.8-28.2,11.5
					S53.3,291,53.3,301.9v75.3H13v-75.4c0-22.2,7.8-41.1,23.3-56.5C51.8,230,70.7,222.3,93,222.3s41.2,7.7,56.7,23.1
					s23.3,34.2,23.3,56.5L173,377.2L173,377.2z"/>
			</g>
		</g>
	</g>
</g>
<g id="Layer_2">
	<path fill="#2E2A25" d="M368.6,302c0,22.5-7.7,41.5-23.1,56.9C330,374.3,311.1,382,288.6,382c-22.3,0-41.2-7.8-56.7-23.3
		s-23.3-34.4-23.3-56.7v-79.7h40.3V302c0,10.9,3.8,20.3,11.5,28.1c7.7,7.8,17,11.7,28,11.7s20.4-3.9,28.2-11.7
		c7.8-7.8,11.7-17.1,11.7-28.1v-79.7h40.3V302z"/>
</g>
</svg>
